HIERARCHY
ROOT Hips
{
	OFFSET 0.000000 0.000000 0.000000 
	CHANNELS 6 Xposition Yposition Zposition Yrotation Zrotation Xrotation 
	JOINT Lumbar
	{
		OFFSET 0.000000 0.000000 0.000000 
		CHANNELS 3 Zrotation Xrotation Yrotation
		JOINT Neck
		{
			OFFSET 0.000000 0.445665 0.000000 
			CHANNELS 3 Zrotation Xrotation Yrotation
			End Site
			{
				OFFSET 0.000000 0.227535 0.000000 
			}
		}
		JOINT RightShoulder
		{
			OFFSET 0.019635 0.377685 0.194865 
			CHANNELS 3 Zrotation Xrotation Yrotation
			JOINT RightElbow
			{
				OFFSET 0.000000 -0.243375 0.000000 
				CHANNELS 2 Zrotation Yrotation
				JOINT RightWrist
				{
					OFFSET 0.000000 -0.264825 0.000000 
					CHANNELS 2 Zrotation Xrotation
					End Site
					{
						OFFSET 0.006600 -0.176220 0.000990 
					}
				}
			}
		}
		JOINT LeftShoulder
		{
			OFFSET 0.019635 0.377685 -0.194865 
			CHANNELS 3 Zrotation Xrotation Yrotation
			JOINT LeftElbow
			{
				OFFSET 0.000000 -0.243375 0.000000 
				CHANNELS 2 Zrotation Yrotation
				JOINT LeftWrist
				{
					OFFSET 0.000000 -0.264825 0.000000 
					CHANNELS 2 Zrotation Xrotation
					End Site
					{
						OFFSET 0.006600 -0.176220 -0.000990 
					}
				}
			}
		}
	}
	JOINT RightHip
	{
		OFFSET 0.052140 -0.069960 0.075570 
		CHANNELS 3 Zrotation Xrotation Yrotation
		JOINT RightKnee
		{
			OFFSET 0.000000 -0.402270 0.000000 
			CHANNELS 1 Zrotation
			JOINT RightAnkle
			{
				OFFSET 0.000000 -0.404085 0.000000 
				CHANNELS 3 Zrotation Xrotation Yrotation
				End Site
				{
					OFFSET 0.204105 -0.089430 0.008415 
				}
			}
		}
	}
	JOINT LeftHip
	{
		OFFSET 0.052140 -0.069960 -0.075570 
		CHANNELS 3 Zrotation Xrotation Yrotation
		JOINT LeftKnee
		{
			OFFSET 0.000000 -0.402270 0.000000 
			CHANNELS 1 Zrotation
			JOINT LeftAnkle
			{
				OFFSET 0.000000 -0.404085 0.000000 
				CHANNELS 3 Zrotation Xrotation Yrotation
				End Site
				{
					OFFSET 0.204105 -0.089430 -0.008415 
				}
			}
		}
	}
}
MOTION
Frames: 25
Frame Time: 0.02
-0.00029 -0.0003 0.00025 26.55336 -20.17223 -1.31508 46.99963 -0.89435 -4.20302 -12.48804 2.73061 -1.22108 -20.46572 -6.10197 -2.75777 31.7471 96.65457 9.26045 1.69346 -23.94911 5.45635 4.8028 32.56053 -103.9466 14.96405 -1.93117 27.45208 -3.11158 -16.89371 -20.21508 -5.90526 -2.69359 -3.49238 32.84928 2.06792 2.95103 -24.07748 -6.41105 1.43578 2.94392
-0.00111 -0.00039 3e-05 26.62742 -20.15586 -1.35146 46.99055 -0.9074 -4.2223 -12.51429 2.72407 -1.22153 -20.48938 -6.07073 -3.0939 31.6655 96.56344 9.19858 1.70055 -23.95587 5.45435 4.85963 32.55172 -103.99675 15.00796 -1.93416 27.48685 -3.00761 -16.2999 -20.21877 -5.93565 -2.74649 -3.52226 32.87834 2.1036 3.13215 -24.08423 -6.41762 1.42607 2.93801
-0.00193 -0.00047 -0.0002 26.70134 -20.13951 -1.38776 46.98146 -0.92039 -4.24149 -12.54044 2.71758 -1.22197 -20.51299 -6.0396 -3.42925 31.58404 96.47264 9.13692 1.70762 -23.96271 5.45235 4.91633 32.54309 -104.04677 15.05177 -1.93714 27.52153 -2.90397 -15.708 -20.22246 -5.96595 -2.79924 -3.55205 32.90735 2.13924 3.31305 -24.09096 -6.4242 1.41633 2.93208
-0.00274 -0.00056 -0.00042 26.77518 -20.12319 -1.42403 46.97241 -0.9334 -4.2607 -12.56661 2.71107 -1.22242 -20.53659 -6.00845 -3.76443 31.50265 96.38178 9.07524 1.71469 -23.96947 5.45033 4.97303 32.53434 -104.09676 15.09555 -1.94012 27.55619 -2.80032 -15.11604 -20.22615 -5.99625 -2.85198 -3.58184 32.93633 2.17483 3.49368 -24.09768 -6.43076 1.40663 2.92618
-0.00356 -0.00064 -0.00065 26.84914 -20.10685 -1.46035 46.96336 -0.94646 -4.28001 -12.59288 2.70451 -1.22286 -20.56023 -5.97721 -4.10019 31.42122 96.29059 9.01337 1.72177 -23.97613 5.44838 5.02974 32.52535 -104.1469 15.13942 -1.94311 27.59094 -2.69632 -14.52212 -20.22981 -6.02664 -2.90487 -3.61172 32.96536 2.21043 3.67438 -24.10442 -6.4373 1.39699 2.9203
-0.00437 -0.00073 -0.00087 26.92295 -20.09048 -1.4966 46.9542 -0.95932 -4.29894 -12.61877 2.69814 -1.22331 -20.58378 -5.94632 -4.43461 31.33974 96.20063 8.95216 1.72884 -23.98334 5.4463 5.08635 32.51746 -104.19665 15.18314 -1.94605 27.62547 -2.59346 -13.93449 -20.23357 -6.05677 -2.9573 -3.64131 32.99431 2.24615 3.85565 -24.11115 -6.44394 1.38706 2.91429
-0.00518 -0.00082 -0.0011 26.99698 -20.07418 -1.53297 46.94528 -0.97255 -4.31861 -12.64542 2.69141 -1.22376 -20.60747 -5.9147 -4.7716 31.25831 96.10823 8.88963 1.73592 -23.98942 5.44434 5.14339 32.50738 -104.24709 15.22706 -1.9491 27.66039 -2.48844 -13.33492 -20.23714 -6.08737 -3.0106 -3.67144 33.02338 2.28161 4.03568 -24.11787 -6.45038 1.37769 2.90855
-0.006 -0.0009 -0.00132 27.07081 -20.05782 -1.56922 46.93614 -0.98547 -4.33762 -12.67135 2.685 -1.2242 -20.63107 -5.88387 -5.10577 31.17708 96.0182 8.82843 1.74298 -23.99656 5.44251 5.19948 32.49932 -104.29695 15.27088 -1.95204 27.69497 -2.38538 -12.74623 -20.24089 -6.11755 -3.06311 -3.70108 33.05236 2.31727 4.21665 -24.12461 -6.457 1.36784 2.90257
-0.00681 -0.00099 -0.00154 27.14445 -20.04135 -1.60537 46.9267 -0.99788 -4.35574 -12.69646 2.679 -1.22465 -20.65441 -5.85354 -5.43848 31.09505 95.93054 8.76839 1.75007 -24.00498 5.4399 5.25667 32.49373 -104.34592 15.31425 -1.9549 27.7291 -2.28478 -12.17113 -20.24484 -6.1472 -3.11463 -3.7301 33.08117 2.35336 4.3997 -24.13133 -6.46389 1.35727 2.89624
-0.00763 -0.00107 -0.00178 27.21932 -20.02544 -1.64225 46.91891 -1.01286 -4.37873 -12.72646 2.67073 -1.22509 -20.6788 -5.81891 -5.78557 31.0145 95.82769 8.70026 1.75715 -24.00598 5.43893 5.31433 32.47394 -104.39947 15.35923 -1.95838 27.76569 -2.17021 -11.5187 -20.24759 -6.17985 -3.17179 -3.76265 33.11078 2.38754 4.57361 -24.13806 -6.46935 1.35044 2.89174
-0.00844 -0.00116 -0.00198 27.29148 -20.0084 -1.67747 46.90766 -1.02265 -4.39162 -12.74605 2.66717 -1.22555 -20.70125 -5.79429 -6.09843 30.93281 95.75787 8.65011 1.76417 -24.02263 5.43632 5.36664 32.4841 -104.44367 15.40145 -1.96044 27.7972 -2.08499 -11.0289 -20.25287 -6.20619 -3.21705 -3.78778 33.13882 2.42538 4.76494 -24.14483 -6.47774 1.33595 2.88351
-0.00925 -0.00124 -0.00208 27.35726 -19.98734 -1.70911 46.88645 -1.01622 -4.37499 -12.73733 2.67763 -1.22607 -20.71447 -5.7899 -6.34899 30.82908 95.77299 8.64307 1.77176 -24.08091 5.41575 5.43678 32.5759 -104.46045 15.43196 -1.95936 27.8132 -2.08186 -10.9937 -20.26531 -6.21502 -3.22926 -3.7922 33.16123 2.47676 5.02089 -24.15147 -6.49504 1.29843 2.8638
-0.01005 -0.00132 -0.00214 27.4202 -19.96506 -1.73897 46.86158 -1.005 -4.34862 -12.71801 2.69274 -1.22665 -20.72526 -5.79707 -6.55963 30.72587 95.82327 8.65575 1.77925 -24.15377 5.3971 5.49343 32.69687 -104.46889 15.4612 -1.95672 27.8241 -2.10778 -11.12004 -20.28027 -6.21754 -3.22959 -3.78924 33.18205 2.53136 5.29177 -24.15829 -6.51509 1.25358 2.84055
-0.01084 -0.0014 -0.00221 27.48359 -19.94428 -1.76893 46.83902 -0.99718 -4.3278 -12.70352 2.7049 -1.22719 -20.74129 -5.80349 -6.76745 30.63707 95.85999 8.66279 1.7862 -24.22258 5.38495 5.53768 32.80618 -104.48137 15.49279 -1.95426 27.83875 -2.11953 -11.16734 -20.29387 -6.22307 -3.23559 -3.78988 33.20485 2.58194 5.54412 -24.16508 -6.53333 1.21343 2.81975
-0.01166 -0.00148 -0.0023 27.55012 -19.92057 -1.80161 46.81479 -0.98396 -4.30192 -12.68939 2.72018 -1.22767 -20.74489 -5.79027 -7.06232 30.49393 95.88271 8.6537 1.79526 -24.28622 5.33723 5.66872 32.91304 -104.48981 15.51387 -1.95393 27.84859 -2.13589 -11.23966 -20.30822 -6.22801 -3.24039 -3.78944 33.22351 2.6425 5.84383 -24.1713 -6.55404 1.16758 2.79547
-0.01243 -0.00156 -0.00234 27.60995 -19.90133 -1.82854 46.79181 -0.98113 -4.28466 -12.67146 2.73058 -1.22844 -20.76748 -5.8215 -7.16812 30.45473 95.94774 8.68557 1.80036 -24.35697 5.36965 5.60499 33.02661 -104.50842 15.56033 -1.9489 27.86565 -2.14894 -11.29696 -20.32182 -6.23265 -3.24492 -3.78954 33.24896 2.68405 6.05128 -24.17922 -6.57016 1.13175 2.77749
-0.01306 -0.00163 -0.00225 27.64548 -19.90675 -1.83707 46.78546 -1.00521 -4.28963 -12.65038 2.72238 -1.22853 -20.89461 -5.96521 -6.74976 30.7847 96.08224 8.80154 1.79151 -24.50802 5.57623 5.10074 33.20477 -104.52393 15.64324 -1.93039 27.9184 -2.15054 -11.28257 -20.33088 -6.23832 -3.25098 -3.79263 33.30693 2.66348 5.97441 -24.18836 -6.57357 1.12638 2.77876
-0.01363 -0.00171 -0.00211 27.67412 -19.91488 -1.84047 46.77862 -1.04007 -4.30399 -12.62513 2.71013 -1.22915 -21.02955 -6.1542 -6.14667 31.20525 96.26705 8.9618 1.77992 -24.65602 5.87303 4.38453 33.38426 -104.55527 15.75697 -1.90738 27.97658 -2.14684 -11.2455 -20.33945 -6.24381 -3.2572 -3.79654 33.37 2.62528 5.80819 -24.20021 -6.57212 1.13128 2.78637
-0.01421 -0.00179 -0.00198 27.712 -19.91336 -1.8481 46.76337 -1.07245 -4.31707 -12.59839 2.70199 -1.23054 -21.12941 -6.32786 -5.63345 31.52863 96.45199 9.11859 1.7707 -24.76037 6.15794 3.70227 33.52121 -104.6023 15.88028 -1.88696 28.02185 -2.14248 -11.21286 -20.34944 -6.24921 -3.26387 -3.80036 33.4211 2.60096 5.70088 -24.21267 -6.57246 1.13065 2.79032
-0.01486 -0.00184 -0.00187 27.72992 -19.94563 -1.84747 46.78263 -1.09607 -4.31867 -12.58477 2.68331 -1.22784 -21.36959 -6.48153 -5.08584 32.08288 96.53394 9.20884 1.75395 -25.04594 6.3162 3.27818 33.81351 -104.55612 15.90857 -1.86411 28.10813 -2.1523 -11.21142 -20.35445 -6.25521 -3.26831 -3.80294 33.51004 2.55205 5.5201 -24.21597 -6.57469 1.13287 2.79712
-0.01535 -0.00196 -0.00172 27.78037 -19.91032 -1.86306 46.73222 -1.13852 -4.34471 -12.544 2.68697 -1.23359 -21.31026 -6.68525 -4.57656 32.18479 96.85087 9.44407 1.75573 -24.96494 6.76444 2.27209 33.81065 -104.70333 16.13634 -1.84539 28.11398 -2.13066 -11.13655 -20.36968 -6.25986 -3.27709 -3.80812 33.52496 2.55002 5.46679 -24.24076 -6.57177 1.13237 2.79994
-0.01532 -0.00227 -0.00152 27.98512 -19.66839 -1.9224 46.46806 -1.2481 -4.45145 -12.42071 2.74063 -1.2642 -20.50196 -7.03419 -4.12705 30.96463 97.71583 10.09852 1.77851 -23.77603 7.95341 -0.33616 32.75296 -105.41512 16.9529 -1.83794 27.86411 -2.02633 -10.87368 -20.41313 -6.26235 -3.30182 -3.82263 33.30268 2.68295 5.82166 -24.30909 -6.55624 1.11579 2.78679
-0.01515 -0.00266 -0.00128 28.21044 -19.36127 -1.99836 46.13655 -1.37305 -4.57957 -12.27206 2.81883 -1.30304 -19.37871 -7.4281 -3.736 29.30232 98.82361 10.8892 1.82512 -22.23972 9.43998 -3.51118 31.44596 -106.31089 17.95775 -1.83486 27.53844 -1.89026 -10.53652 -20.46678 -6.26333 -3.32997 -3.83924 33.01095 2.86353 6.30051 -24.40187 -6.53571 1.09718 2.77002
-0.0151 -0.00301 -0.00103 28.3861 -19.09762 -2.0686 45.85157 -1.47926 -4.68785 -12.14048 2.89458 -1.33701 -18.34506 -7.78997 -3.38296 27.86724 99.88864 11.60111 1.88197 -20.92118 10.81288 -6.39942 30.4059 -107.1046 18.85025 -1.83082 27.26959 -1.76616 -10.22478 -20.51597 -6.26389 -3.35428 -3.85353 32.77261 3.0214 6.70119 -24.49324 -6.51709 1.08365 2.75726
-0.01482 -0.00335 -0.0009 28.73463 -18.7786 -2.13216 45.50457 -1.63517 -4.83939 -11.98467 2.93513 -1.37564 -17.53076 -8.20398 -2.76611 26.29674 100.70411 12.39608 1.85265 -19.33541 12.09041 -9.42985 28.70403 -107.992 19.86884 -1.82304 26.90944 -1.6505 -9.94197 -20.56484 -6.2687 -3.38925 -3.87404 32.44516 3.18275 7.19464 -24.54335 -6.49943 1.05338 2.73496
